<svg width="1246" height="891" viewBox="0 0 1246 891" fill="none" xmlns="http://www.w3.org/2000/svg">
<path fill-rule="evenodd" clip-rule="evenodd" d="M1068.57 365.128C1068.57 326.244 1044.72 300.469 1010.54 310.71L1037.97 258.684L1001.54 253.715C1000.46 253.567 1000.12 252.176 1001.01 251.55L1164.81 147.676C1165.38 147.274 1166.18 147.449 1166.53 148.055L1244.77 284.67C1245.28 285.531 1244.57 286.592 1243.58 286.456L1198.18 280.212C1193.8 292.372 1185.27 314.537 1179.05 329.847C1162.3 371.108 1159.49 377.399 1135.41 409.978C1111.33 442.556 1068.57 437.271 1068.57 365.128Z" fill="url(#paint0_linear_895_130)"/>
<path fill-rule="evenodd" clip-rule="evenodd" d="M715.184 470.745C706.193 485.736 688.593 522.083 679.523 540.483C678.998 541.549 679.669 542.799 680.842 542.977L819.497 563.729C821.387 564.015 822.579 561.113 821.202 559.788C812.26 551.189 808.776 539.884 805.886 529.764C802.364 517.432 801.483 495.436 801.483 480.434C801.483 461.055 801.483 443.437 788.274 429.343C778.587 416.13 760.975 417.892 748.647 427.581C739.619 434.678 725.751 453.127 715.184 470.745Z" fill="#77ABDE"/>
<path fill-rule="evenodd" clip-rule="evenodd" d="M480.944 411.727C464.212 431.988 413.137 511.267 413.137 511.267L432.511 513.91C432.511 513.91 451.003 511.796 465.093 517.434C482.705 524.479 491.203 537.068 498.556 556.191C507.362 579.094 510.004 646.041 513.526 667.182C517.049 688.324 531.138 708.584 554.034 702.418C572.351 697.485 593.367 662.778 601.587 646.041C626.83 594.363 681.509 481.678 703.737 447.842C723.991 417.011 737.2 404.68 745.126 401.157L687.886 392.348C639.747 386.181 541.706 371.206 521.452 378.254C504.345 384.205 497.675 391.467 480.944 411.727Z" fill="url(#paint1_linear_895_130)"/>
<path fill-rule="evenodd" clip-rule="evenodd" d="M799.78 321.355C786.729 337.159 747.768 400.276 747.768 400.276C747.768 400.276 767.141 391.25 786.515 399.002C800.254 404.499 811.599 417.069 817.336 431.988C824.204 449.852 822.449 504.134 825.196 520.626C827.944 537.118 838.935 552.921 856.796 548.111C871.083 544.264 887.478 517.19 893.889 504.134C913.581 463.823 956.234 375.923 973.573 349.528C989.371 325.478 999.676 315.857 1005.86 313.109L961.207 306.238C923.657 301.428 847.178 289.746 831.38 295.244C818.035 299.886 812.832 305.551 799.78 321.355Z" fill="url(#paint2_linear_895_130)"/>
<path fill-rule="evenodd" clip-rule="evenodd" d="M82.9081 630.181C50.2429 691.362 15.4642 787.865 1.56828 830.204C1.25654 831.154 1.81309 832.132 2.77471 832.405L204.508 889.565C205.441 889.83 206.408 889.301 206.679 888.371C210.786 874.27 220.093 843.661 228.208 821.335C238.775 792.266 286.328 686.56 298.657 662.776C310.985 638.992 338.284 590.543 369.986 554.427C395.347 525.534 421.061 515.96 432.509 513.904L243.179 488.36C243.179 488.36 214.999 484.835 198.268 491.003C181.536 497.169 163.924 511.785 152.476 523.594C143.084 533.284 116.019 568.167 82.9081 630.181Z" fill="url(#paint3_linear_895_130)"/>
<path fill-rule="evenodd" clip-rule="evenodd" d="M375.27 591.426C359.032 612.798 331.636 659.139 318.031 683.038C317.437 684.081 318.039 685.397 319.216 685.633L509.205 723.736C511.281 724.154 513.612 718.781 512.146 717.251C504.952 709.743 498.532 698.703 494.152 683.919C487.107 660.135 487.988 633.708 484.465 601.996C482.033 580.096 475.659 560.595 465.972 550.905C455.259 540.188 439.348 539.751 423.703 545.62C409.614 550.905 393.419 567.54 375.27 591.426Z" fill="url(#paint4_linear_895_130)"/>
<path d="M1130.83 1.23291V168.601M1068.57 365.129C1068.57 326.245 1044.72 300.47 1010.53 310.711L1037.97 258.685L1001.54 253.715C1000.46 253.568 1000.12 252.175 1001.01 251.551L1164.81 147.677C1165.38 147.275 1166.18 147.449 1166.53 148.055L1244.77 284.671C1245.28 285.532 1244.57 286.592 1243.58 286.457L1198.18 280.213C1193.8 292.372 1185.27 314.538 1179.05 329.847C1162.29 371.109 1159.49 377.4 1135.41 409.978C1111.33 442.557 1068.57 437.272 1068.57 365.129Z" stroke="#B8B8B8" stroke-width="1.33753" stroke-linecap="round" stroke-linejoin="round"/>
<path fill-rule="evenodd" clip-rule="evenodd" d="M715.184 470.745C706.192 485.736 688.592 522.082 679.523 540.483C678.998 541.548 679.668 542.8 680.841 542.977L819.496 563.729C821.386 564.014 822.579 561.113 821.201 559.787C812.26 551.189 808.777 539.883 805.886 529.764C802.364 517.432 801.483 495.435 801.483 480.434C801.483 461.055 801.483 443.437 788.274 429.343C778.588 416.13 760.975 417.891 748.647 427.581C739.619 434.677 725.751 453.127 715.184 470.745Z" stroke="#B8B8B8" stroke-width="1.33753" stroke-linecap="round" stroke-linejoin="round"/>
<path d="M454.526 297.21V448.723M480.944 411.727C464.212 431.987 413.137 511.267 413.137 511.267L432.511 513.909C432.511 513.909 451.003 511.795 465.093 517.433C482.705 524.48 491.203 537.069 498.556 556.192C507.362 579.095 510.004 646.042 513.526 667.183C517.049 688.325 531.138 708.585 554.034 702.419C572.351 697.486 593.368 662.779 601.587 646.042C626.831 594.363 681.509 481.679 703.737 447.843C723.991 417.012 737.2 404.679 745.126 401.156L687.886 392.347C639.747 386.181 541.706 371.206 521.452 378.253C504.345 384.205 497.675 391.466 480.944 411.727Z" stroke="#B8B8B8" stroke-width="1.33753" stroke-linecap="round" stroke-linejoin="round"/>
<path d="M792.679 149.221V330.684M799.78 321.354C786.729 337.159 747.768 400.275 747.768 400.275C747.768 400.275 767.141 391.25 786.515 399.002C800.253 404.499 811.6 417.069 817.336 431.987C824.205 449.852 822.449 504.134 825.197 520.626C827.944 537.117 838.935 552.921 856.795 548.111C871.083 544.264 887.478 517.19 893.889 504.134C913.581 463.822 956.233 375.922 973.572 349.527C989.372 325.477 999.676 315.857 1005.86 313.109L961.208 306.237C923.656 301.427 847.178 289.746 831.379 295.243C818.035 299.886 812.832 305.55 799.78 321.354Z" stroke="#B8B8B8" stroke-width="1.33753" stroke-linecap="round" stroke-linejoin="round"/>
<path fill-rule="evenodd" clip-rule="evenodd" d="M82.9088 630.182C50.2432 691.363 15.4636 787.866 1.56891 830.204C1.257 831.154 1.81284 832.132 2.77482 832.405L204.508 889.566C205.44 889.83 206.408 889.302 206.679 888.371C210.786 874.269 220.093 843.661 228.209 821.335C238.776 792.265 286.329 686.559 298.657 662.775C310.986 638.991 338.285 590.542 369.986 554.426C395.348 525.533 421.062 515.961 432.509 513.905L243.179 488.36C243.179 488.36 215 484.836 198.268 491.002C181.537 497.169 163.925 511.786 152.477 523.595C143.083 533.285 116.02 568.168 82.9088 630.182Z" stroke="#B8B8B8" stroke-width="1.33753" stroke-linecap="round" stroke-linejoin="round"/>
<path d="M116.374 445.199V572.047M375.27 591.426C359.032 612.799 331.636 659.141 318.031 683.038C317.436 684.082 318.039 685.398 319.216 685.634L509.205 723.738C511.281 724.155 513.61 718.781 512.145 717.252C504.952 709.744 498.531 698.704 494.152 683.919C487.107 660.136 487.987 633.709 484.465 601.997C482.032 580.096 475.659 560.595 465.972 550.906C455.259 540.189 439.348 539.752 423.703 545.62C409.614 550.905 393.418 567.54 375.27 591.426Z" stroke="#B8B8B8" stroke-width="1.33753" stroke-linecap="round" stroke-linejoin="round"/>
<defs>
<linearGradient id="paint0_linear_895_130" x1="1122.72" y1="147.459" x2="1122.72" y2="429.126" gradientUnits="userSpaceOnUse">
<stop offset="0.0192316" stop-color="#6087CE"/>
<stop offset="1" stop-color="#264C92"/>
</linearGradient>
<linearGradient id="paint1_linear_895_130" x1="579.132" y1="376.408" x2="579.132" y2="703.541" gradientUnits="userSpaceOnUse">
<stop stop-color="#2E6FB6"/>
<stop offset="1" stop-color="#7BAEE0"/>
</linearGradient>
<linearGradient id="paint2_linear_895_130" x1="876.813" y1="293.804" x2="876.813" y2="548.988" gradientUnits="userSpaceOnUse">
<stop stop-color="#3A80C1"/>
<stop offset="0.894328" stop-color="#60A8EB"/>
</linearGradient>
<linearGradient id="paint3_linear_895_130" x1="216.995" y1="487.357" x2="216.995" y2="889.633" gradientUnits="userSpaceOnUse">
<stop stop-color="#2E5AA8"/>
<stop offset="1" stop-color="#3A80C1"/>
</linearGradient>
<linearGradient id="paint4_linear_895_130" x1="415.202" y1="541.855" x2="415.202" y2="723.76" gradientUnits="userSpaceOnUse">
<stop stop-color="#3A7FC0"/>
<stop offset="1" stop-color="#1B3C5A"/>
</linearGradient>
</defs>
</svg>
